# Blender 4.5.0
# www.blender.org
mtllib OuterWall.mtl
o Cylinder
v 0.000000 -8.000000 -40.000000
v 0.000000 8.000000 -40.000000
v 3.920686 -8.000000 -39.807388
v 3.920686 8.000000 -39.807388
v 7.803613 -8.000000 -39.231411
v 7.803613 8.000000 -39.231411
v 11.611387 -8.000000 -38.277615
v 11.611387 8.000000 -38.277615
v 15.307339 -8.000000 -36.955181
v 15.307339 8.000000 -36.955181
v 18.855869 -8.000000 -35.276848
v 18.855869 8.000000 -35.276848
v 22.222809 -8.000000 -33.258785
v 22.222809 8.000000 -33.258785
v 25.375732 -8.000000 -30.920418
v 25.375732 8.000000 -30.920418
v 28.284271 -8.000000 -28.284271
v 28.284271 8.000000 -28.284271
v 30.920418 -8.000000 -25.375732
v 30.920418 8.000000 -25.375732
v 33.258785 -8.000000 -22.222809
v 33.258785 8.000000 -22.222809
v 35.276848 -8.000000 -18.855869
v 35.276848 8.000000 -18.855869
v 36.955181 -8.000000 -15.307339
v 36.955181 8.000000 -15.307339
v 38.277615 -8.000000 -11.611387
v 38.277615 8.000000 -11.611387
v 39.231411 -8.000000 -7.803613
v 39.231411 8.000000 -7.803613
v 39.807388 -8.000000 -3.920686
v 39.807388 8.000000 -3.920686
v 40.000000 -8.000000 0.000000
v 40.000000 8.000000 0.000000
v 39.807388 -8.000000 3.920686
v 39.807388 8.000000 3.920686
v 39.231411 -8.000000 7.803613
v 39.231411 8.000000 7.803613
v 38.277615 -8.000000 11.611387
v 38.277615 8.000000 11.611387
v 36.955181 -8.000000 15.307339
v 36.955181 8.000000 15.307339
v 35.276848 -8.000000 18.855869
v 35.276848 8.000000 18.855869
v 33.258785 -8.000000 22.222809
v 33.258785 8.000000 22.222809
v 30.920418 -8.000000 25.375732
v 30.920418 8.000000 25.375732
v 28.284271 -8.000000 28.284271
v 28.284271 8.000000 28.284271
v 25.375732 -8.000000 30.920418
v 25.375732 8.000000 30.920418
v 22.222809 -8.000000 33.258785
v 22.222809 8.000000 33.258785
v 18.855869 -8.000000 35.276848
v 18.855869 8.000000 35.276848
v 15.307339 -8.000000 36.955181
v 15.307339 8.000000 36.955181
v 11.611387 -8.000000 38.277615
v 11.611387 8.000000 38.277615
v 7.803613 -8.000000 39.231411
v 7.803613 8.000000 39.231411
v 3.920686 -8.000000 39.807388
v 3.920686 8.000000 39.807388
v 0.000000 -8.000000 40.000000
v 0.000000 8.000000 40.000000
v -3.920686 -8.000000 39.807388
v -3.920686 8.000000 39.807388
v -7.803613 -8.000000 39.231411
v -7.803613 8.000000 39.231411
v -11.611387 -8.000000 38.277615
v -11.611387 8.000000 38.277615
v -15.307339 -8.000000 36.955181
v -15.307339 8.000000 36.955181
v -18.855869 -8.000000 35.276848
v -18.855869 8.000000 35.276848
v -22.222809 -8.000000 33.258785
v -22.222809 8.000000 33.258785
v -25.375732 -8.000000 30.920418
v -25.375732 8.000000 30.920418
v -28.284271 -8.000000 28.284271
v -28.284271 8.000000 28.284271
v -30.920418 -8.000000 25.375732
v -30.920418 8.000000 25.375732
v -33.258785 -8.000000 22.222809
v -33.258785 8.000000 22.222809
v -35.276848 -8.000000 18.855869
v -35.276848 8.000000 18.855869
v -36.955181 -8.000000 15.307339
v -36.955181 8.000000 15.307339
v -38.277615 -8.000000 11.611387
v -38.277615 8.000000 11.611387
v -39.231411 -8.000000 7.803613
v -39.231411 8.000000 7.803613
v -39.807388 -8.000000 3.920686
v -39.807388 8.000000 3.920686
v -40.000000 -8.000000 0.000000
v -40.000000 8.000000 0.000000
v -39.807388 -8.000000 -3.920686
v -39.807388 8.000000 -3.920686
v -39.231411 -8.000000 -7.803613
v -39.231411 8.000000 -7.803613
v -38.277615 -8.000000 -11.611387
v -38.277615 8.000000 -11.611387
v -36.955181 -8.000000 -15.307339
v -36.955181 8.000000 -15.307339
v -35.276848 -8.000000 -18.855869
v -35.276848 8.000000 -18.855869
v -33.258785 -8.000000 -22.222809
v -33.258785 8.000000 -22.222809
v -30.920418 -8.000000 -25.375732
v -30.920418 8.000000 -25.375732
v -28.284271 -8.000000 -28.284271
v -28.284271 8.000000 -28.284271
v -25.375732 -8.000000 -30.920418
v -25.375732 8.000000 -30.920418
v -22.222809 -8.000000 -33.258785
v -22.222809 8.000000 -33.258785
v -18.855869 -8.000000 -35.276848
v -18.855869 8.000000 -35.276848
v -15.307339 -8.000000 -36.955181
v -15.307339 8.000000 -36.955181
v -11.611387 -8.000000 -38.277615
v -11.611387 8.000000 -38.277615
v -7.803613 -8.000000 -39.231411
v -7.803613 8.000000 -39.231411
v -3.920686 -8.000000 -39.807388
v -3.920686 8.000000 -39.807388
vn -0.0491 -0.0000 0.9988
vn -0.1467 -0.0000 0.9892
vn -0.2430 -0.0000 0.9700
vn -0.3369 -0.0000 0.9415
vn -0.4276 -0.0000 0.9040
vn -0.5141 -0.0000 0.8577
vn -0.5957 -0.0000 0.8032
vn -0.6716 -0.0000 0.7410
vn -0.7410 -0.0000 0.6716
vn -0.8032 -0.0000 0.5957
vn -0.8577 -0.0000 0.5141
vn -0.9040 -0.0000 0.4276
vn -0.9415 -0.0000 0.3369
vn -0.9700 -0.0000 0.2430
vn -0.9892 -0.0000 0.1467
vn -0.9988 -0.0000 0.0491
vn -0.9988 -0.0000 -0.0491
vn -0.9892 -0.0000 -0.1467
vn -0.9700 -0.0000 -0.2430
vn -0.9415 -0.0000 -0.3369
vn -0.9040 -0.0000 -0.4276
vn -0.8577 -0.0000 -0.5141
vn -0.8032 -0.0000 -0.5957
vn -0.7410 -0.0000 -0.6716
vn -0.6716 -0.0000 -0.7410
vn -0.5957 -0.0000 -0.8032
vn -0.5141 -0.0000 -0.8577
vn -0.4276 -0.0000 -0.9040
vn -0.3369 -0.0000 -0.9415
vn -0.2430 -0.0000 -0.9700
vn -0.1467 -0.0000 -0.9892
vn -0.0491 -0.0000 -0.9988
vn 0.0491 -0.0000 -0.9988
vn 0.1467 -0.0000 -0.9892
vn 0.2430 -0.0000 -0.9700
vn 0.3369 -0.0000 -0.9415
vn 0.4276 -0.0000 -0.9040
vn 0.5141 -0.0000 -0.8577
vn 0.5957 -0.0000 -0.8032
vn 0.6716 -0.0000 -0.7410
vn 0.7410 -0.0000 -0.6716
vn 0.8032 -0.0000 -0.5957
vn 0.8577 -0.0000 -0.5141
vn 0.9040 -0.0000 -0.4276
vn 0.9415 -0.0000 -0.3369
vn 0.9700 -0.0000 -0.2430
vn 0.9892 -0.0000 -0.1467
vn 0.9988 -0.0000 -0.0491
vn 0.9988 -0.0000 0.0491
vn 0.9892 -0.0000 0.1467
vn 0.9700 -0.0000 0.2430
vn 0.9415 -0.0000 0.3369
vn 0.9040 -0.0000 0.4276
vn 0.8577 -0.0000 0.5141
vn 0.8032 -0.0000 0.5957
vn 0.7410 -0.0000 0.6716
vn 0.6716 -0.0000 0.7410
vn 0.5957 -0.0000 0.8032
vn 0.5141 -0.0000 0.8577
vn 0.4276 -0.0000 0.9040
vn 0.3369 -0.0000 0.9415
vn 0.2430 -0.0000 0.9700
vn -0.0000 -1.0000 -0.0000
vn 0.1467 -0.0000 0.9892
vn 0.0491 -0.0000 0.9988
vn -0.0000 1.0000 -0.0000
vt 1.000000 0.500000
vt 0.984375 0.500000
vt 0.984375 1.000000
vt 1.000000 1.000000
vt 0.968750 0.500000
vt 0.968750 1.000000
vt 0.953125 0.500000
vt 0.953125 1.000000
vt 0.937500 0.500000
vt 0.937500 1.000000
vt 0.921875 0.500000
vt 0.921875 1.000000
vt 0.906250 0.500000
vt 0.906250 1.000000
vt 0.890625 0.500000
vt 0.890625 1.000000
vt 0.875000 0.500000
vt 0.875000 1.000000
vt 0.859375 0.500000
vt 0.859375 1.000000
vt 0.843750 0.500000
vt 0.843750 1.000000
vt 0.828125 0.500000
vt 0.828125 1.000000
vt 0.812500 0.500000
vt 0.812500 1.000000
vt 0.796875 0.500000
vt 0.796875 1.000000
vt 0.781250 0.500000
vt 0.781250 1.000000
vt 0.765625 0.500000
vt 0.765625 1.000000
vt 0.750000 0.500000
vt 0.750000 1.000000
vt 0.734375 0.500000
vt 0.734375 1.000000
vt 0.718750 0.500000
vt 0.718750 1.000000
vt 0.703125 0.500000
vt 0.703125 1.000000
vt 0.687500 0.500000
vt 0.687500 1.000000
vt 0.671875 0.500000
vt 0.671875 1.000000
vt 0.656250 0.500000
vt 0.656250 1.000000
vt 0.640625 0.500000
vt 0.640625 1.000000
vt 0.625000 0.500000
vt 0.625000 1.000000
vt 0.609375 0.500000
vt 0.609375 1.000000
vt 0.593750 0.500000
vt 0.593750 1.000000
vt 0.578125 0.500000
vt 0.578125 1.000000
vt 0.562500 0.500000
vt 0.562500 1.000000
vt 0.546875 0.500000
vt 0.546875 1.000000
vt 0.531250 0.500000
vt 0.531250 1.000000
vt 0.515625 0.500000
vt 0.515625 1.000000
vt 0.500000 0.500000
vt 0.500000 1.000000
vt 0.484375 0.500000
vt 0.484375 1.000000
vt 0.468750 0.500000
vt 0.468750 1.000000
vt 0.453125 0.500000
vt 0.453125 1.000000
vt 0.437500 0.500000
vt 0.437500 1.000000
vt 0.421875 0.500000
vt 0.421875 1.000000
vt 0.406250 0.500000
vt 0.406250 1.000000
vt 0.390625 0.500000
vt 0.390625 1.000000
vt 0.375000 0.500000
vt 0.375000 1.000000
vt 0.359375 0.500000
vt 0.359375 1.000000
vt 0.343750 0.500000
vt 0.343750 1.000000
vt 0.328125 0.500000
vt 0.328125 1.000000
vt 0.312500 0.500000
vt 0.312500 1.000000
vt 0.296875 0.500000
vt 0.296875 1.000000
vt 0.281250 0.500000
vt 0.281250 1.000000
vt 0.265625 0.500000
vt 0.265625 1.000000
vt 0.250000 0.500000
vt 0.250000 1.000000
vt 0.234375 0.500000
vt 0.234375 1.000000
vt 0.218750 0.500000
vt 0.218750 1.000000
vt 0.203125 0.500000
vt 0.203125 1.000000
vt 0.187500 0.500000
vt 0.187500 1.000000
vt 0.171875 0.500000
vt 0.171875 1.000000
vt 0.156250 0.500000
vt 0.156250 1.000000
vt 0.140625 0.500000
vt 0.140625 1.000000
vt 0.125000 0.500000
vt 0.125000 1.000000
vt 0.109375 0.500000
vt 0.109375 1.000000
vt 0.093750 0.500000
vt 0.093750 1.000000
vt 0.078125 0.500000
vt 0.078125 1.000000
vt 0.062500 0.500000
vt 0.062500 1.000000
vt 0.046875 0.500000
vt 0.046875 1.000000
vt 0.031250 0.500000
vt 0.031250 1.000000
vt 0.273524 0.488844
vt 0.296822 0.485388
vt 0.319668 0.479666
vt 0.341844 0.471731
vt 0.363135 0.461661
vt 0.383337 0.449553
vt 0.402254 0.435522
vt 0.419706 0.419706
vt 0.435522 0.402254
vt 0.449553 0.383337
vt 0.461661 0.363135
vt 0.471731 0.341844
vt 0.479666 0.319668
vt 0.485388 0.296822
vt 0.488844 0.273524
vt 0.490000 0.250000
vt 0.488844 0.226476
vt 0.485388 0.203178
vt 0.479666 0.180332
vt 0.471731 0.158156
vt 0.461661 0.136865
vt 0.449553 0.116663
vt 0.435522 0.097746
vt 0.419706 0.080294
vt 0.402254 0.064478
vt 0.383337 0.050447
vt 0.363135 0.038339
vt 0.341844 0.028269
vt 0.319668 0.020334
vt 0.296822 0.014612
vt 0.273524 0.011156
vt 0.250000 0.010000
vt 0.226476 0.011156
vt 0.203178 0.014612
vt 0.180332 0.020334
vt 0.158156 0.028269
vt 0.136865 0.038339
vt 0.116663 0.050447
vt 0.097746 0.064478
vt 0.080294 0.080294
vt 0.064478 0.097746
vt 0.050447 0.116663
vt 0.038339 0.136865
vt 0.028269 0.158156
vt 0.020334 0.180332
vt 0.014612 0.203178
vt 0.011156 0.226476
vt 0.010000 0.250000
vt 0.011156 0.273524
vt 0.014612 0.296822
vt 0.020334 0.319668
vt 0.028269 0.341844
vt 0.038339 0.363135
vt 0.050447 0.383337
vt 0.064478 0.402254
vt 0.080294 0.419706
vt 0.097746 0.435522
vt 0.116663 0.449553
vt 0.136865 0.461661
vt 0.158156 0.471731
vt 0.180332 0.479666
vt 0.203178 0.485388
vt 0.226476 0.488844
vt 0.250000 0.490000
vt 0.015625 0.500000
vt 0.015625 1.000000
vt 0.000000 0.500000
vt 0.000000 1.000000
vt 0.750000 0.490000
vt 0.726476 0.488844
vt 0.703178 0.485388
vt 0.680332 0.479666
vt 0.658156 0.471731
vt 0.636865 0.461661
vt 0.616663 0.449553
vt 0.597746 0.435522
vt 0.580294 0.419706
vt 0.564478 0.402254
vt 0.550447 0.383337
vt 0.538339 0.363135
vt 0.528269 0.341844
vt 0.520334 0.319668
vt 0.514612 0.296822
vt 0.511156 0.273524
vt 0.510000 0.250000
vt 0.511156 0.226476
vt 0.514612 0.203178
vt 0.520334 0.180332
vt 0.528269 0.158156
vt 0.538339 0.136865
vt 0.550447 0.116663
vt 0.564478 0.097746
vt 0.580294 0.080294
vt 0.597746 0.064478
vt 0.616663 0.050447
vt 0.636865 0.038339
vt 0.658156 0.028269
vt 0.680332 0.020334
vt 0.703178 0.014612
vt 0.726476 0.011156
vt 0.750000 0.010000
vt 0.773524 0.011156
vt 0.796822 0.014612
vt 0.819668 0.020334
vt 0.841844 0.028269
vt 0.863135 0.038339
vt 0.883337 0.050447
vt 0.902254 0.064478
vt 0.919706 0.080294
vt 0.935522 0.097746
vt 0.949553 0.116663
vt 0.961661 0.136865
vt 0.971731 0.158156
vt 0.979666 0.180332
vt 0.985388 0.203178
vt 0.988844 0.226476
vt 0.990000 0.250000
vt 0.988844 0.273524
vt 0.985388 0.296822
vt 0.979666 0.319668
vt 0.971731 0.341844
vt 0.961661 0.363135
vt 0.949553 0.383337
vt 0.935522 0.402254
vt 0.919706 0.419706
vt 0.902254 0.435522
vt 0.883337 0.449553
vt 0.863135 0.461661
vt 0.841844 0.471731
vt 0.819668 0.479666
vt 0.796822 0.485388
vt 0.773524 0.488844
s 0
f 1/1/1 3/2/1 4/3/1 2/4/1
f 3/2/2 5/5/2 6/6/2 4/3/2
f 5/5/3 7/7/3 8/8/3 6/6/3
f 7/7/4 9/9/4 10/10/4 8/8/4
f 9/9/5 11/11/5 12/12/5 10/10/5
f 11/11/6 13/13/6 14/14/6 12/12/6
f 13/13/7 15/15/7 16/16/7 14/14/7
f 15/15/8 17/17/8 18/18/8 16/16/8
f 17/17/9 19/19/9 20/20/9 18/18/9
f 19/19/10 21/21/10 22/22/10 20/20/10
f 21/21/11 23/23/11 24/24/11 22/22/11
f 23/23/12 25/25/12 26/26/12 24/24/12
f 25/25/13 27/27/13 28/28/13 26/26/13
f 27/27/14 29/29/14 30/30/14 28/28/14
f 29/29/15 31/31/15 32/32/15 30/30/15
f 31/31/16 33/33/16 34/34/16 32/32/16
f 33/33/17 35/35/17 36/36/17 34/34/17
f 35/35/18 37/37/18 38/38/18 36/36/18
f 37/37/19 39/39/19 40/40/19 38/38/19
f 39/39/20 41/41/20 42/42/20 40/40/20
f 41/41/21 43/43/21 44/44/21 42/42/21
f 43/43/22 45/45/22 46/46/22 44/44/22
f 45/45/23 47/47/23 48/48/23 46/46/23
f 47/47/24 49/49/24 50/50/24 48/48/24
f 49/49/25 51/51/25 52/52/25 50/50/25
f 51/51/26 53/53/26 54/54/26 52/52/26
f 53/53/27 55/55/27 56/56/27 54/54/27
f 55/55/28 57/57/28 58/58/28 56/56/28
f 57/57/29 59/59/29 60/60/29 58/58/29
f 59/59/30 61/61/30 62/62/30 60/60/30
f 61/61/31 63/63/31 64/64/31 62/62/31
f 63/63/32 65/65/32 66/66/32 64/64/32
f 65/65/33 67/67/33 68/68/33 66/66/33
f 67/67/34 69/69/34 70/70/34 68/68/34
f 69/69/35 71/71/35 72/72/35 70/70/35
f 71/71/36 73/73/36 74/74/36 72/72/36
f 73/73/37 75/75/37 76/76/37 74/74/37
f 75/75/38 77/77/38 78/78/38 76/76/38
f 77/77/39 79/79/39 80/80/39 78/78/39
f 79/79/40 81/81/40 82/82/40 80/80/40
f 81/81/41 83/83/41 84/84/41 82/82/41
f 83/83/42 85/85/42 86/86/42 84/84/42
f 85/85/43 87/87/43 88/88/43 86/86/43
f 87/87/44 89/89/44 90/90/44 88/88/44
f 89/89/45 91/91/45 92/92/45 90/90/45
f 91/91/46 93/93/46 94/94/46 92/92/46
f 93/93/47 95/95/47 96/96/47 94/94/47
f 95/95/48 97/97/48 98/98/48 96/96/48
f 97/97/49 99/99/49 100/100/49 98/98/49
f 99/99/50 101/101/50 102/102/50 100/100/50
f 101/101/51 103/103/51 104/104/51 102/102/51
f 103/103/52 105/105/52 106/106/52 104/104/52
f 105/105/53 107/107/53 108/108/53 106/106/53
f 107/107/54 109/109/54 110/110/54 108/108/54
f 109/109/55 111/111/55 112/112/55 110/110/55
f 111/111/56 113/113/56 114/114/56 112/112/56
f 113/113/57 115/115/57 116/116/57 114/114/57
f 115/115/58 117/117/58 118/118/58 116/116/58
f 117/117/59 119/119/59 120/120/59 118/118/59
f 119/119/60 121/121/60 122/122/60 120/120/60
f 121/121/61 123/123/61 124/124/61 122/122/61
f 123/123/62 125/125/62 126/126/62 124/124/62
f 4/127/63 6/128/63 8/129/63 10/130/63 12/131/63 14/132/63 16/133/63 18/134/63 20/135/63 22/136/63 24/137/63 26/138/63 28/139/63 30/140/63 32/141/63 34/142/63 36/143/63 38/144/63 40/145/63 42/146/63 44/147/63 46/148/63 48/149/63 50/150/63 52/151/63 54/152/63 56/153/63 58/154/63 60/155/63 62/156/63 64/157/63 66/158/63 68/159/63 70/160/63 72/161/63 74/162/63 76/163/63 78/164/63 80/165/63 82/166/63 84/167/63 86/168/63 88/169/63 90/170/63 92/171/63 94/172/63 96/173/63 98/174/63 100/175/63 102/176/63 104/177/63 106/178/63 108/179/63 110/180/63 112/181/63 114/182/63 116/183/63 118/184/63 120/185/63 122/186/63 124/187/63 126/188/63 128/189/63 2/190/63
f 125/125/64 127/191/64 128/192/64 126/126/64
f 127/191/65 1/193/65 2/194/65 128/192/65
f 1/195/66 127/196/66 125/197/66 123/198/66 121/199/66 119/200/66 117/201/66 115/202/66 113/203/66 111/204/66 109/205/66 107/206/66 105/207/66 103/208/66 101/209/66 99/210/66 97/211/66 95/212/66 93/213/66 91/214/66 89/215/66 87/216/66 85/217/66 83/218/66 81/219/66 79/220/66 77/221/66 75/222/66 73/223/66 71/224/66 69/225/66 67/226/66 65/227/66 63/228/66 61/229/66 59/230/66 57/231/66 55/232/66 53/233/66 51/234/66 49/235/66 47/236/66 45/237/66 43/238/66 41/239/66 39/240/66 37/241/66 35/242/66 33/243/66 31/244/66 29/245/66 27/246/66 25/247/66 23/248/66 21/249/66 19/250/66 17/251/66 15/252/66 13/253/66 11/254/66 9/255/66 7/256/66 5/257/66 3/258/66
